<?xml version="1.0" encoding="utf-8"?>
<!-- Generator: Adobe Illustrator 24.2.2, SVG Export Plug-In . SVG Version: 6.00 Build 0)  -->
<svg version="1.1" id="Layer_1" xmlns="http://www.w3.org/2000/svg" xmlns:xlink="http://www.w3.org/1999/xlink" x="0px" y="0px"
	 viewBox="0 0 481.1 214.1" style="enable-background:new 0 0 481.1 214.1;" xml:space="preserve">
<style type="text/css">
	.st0{fill:#FFFFFF;}
	.st1{fill:#AEB0B3;}
	.st2{fill:#5380C2;}
	.st3{fill:url(#XMLID_2_);}
	.st4{fill:url(#XMLID_3_);}
	.st5{fill:url(#XMLID_4_);}
	.st6{fill:url(#XMLID_5_);}
	.st7{fill:url(#XMLID_6_);}
	.st8{fill:url(#XMLID_7_);}
	.st9{fill:url(#XMLID_8_);}
	.st10{fill:url(#XMLID_9_);}
	.st11{fill:url(#XMLID_10_);}
	.st12{fill:url(#XMLID_11_);}
	.st13{fill:url(#XMLID_12_);}
	.st14{fill:url(#XMLID_13_);}
	.st15{fill:url(#XMLID_14_);}
	.st16{fill:url(#XMLID_15_);}
	.st17{fill:#34A853;}
	.st18{fill:#EB4436;}
	.st19{fill:#FBBD0F;}
</style>
<g>
	<g>
		<path class="st0" d="M77.6,149.8H109v7.8H86.3v12.8h21.4v7.8H86.3v20.2h-8.7V149.8z"/>
		<path class="st0" d="M111.7,182c0-2.6,0.5-5,1.4-7.1c0.9-2.1,2.2-4,3.8-5.5c1.6-1.5,3.5-2.7,5.7-3.5c2.2-0.8,4.5-1.2,7-1.2
			c2.5,0,4.8,0.4,7,1.2c2.2,0.8,4.1,2,5.7,3.5c1.6,1.5,2.9,3.3,3.8,5.5c0.9,2.1,1.4,4.5,1.4,7.1c0,2.6-0.5,5-1.4,7.1
			c-0.9,2.1-2.2,4-3.8,5.5c-1.6,1.5-3.5,2.7-5.7,3.5c-2.2,0.8-4.5,1.2-7,1.2c-2.5,0-4.8-0.4-7-1.2c-2.2-0.8-4.1-2-5.7-3.5
			c-1.6-1.5-2.9-3.3-3.8-5.5C112.2,187,111.7,184.6,111.7,182z M119.9,182c0,1.3,0.2,2.5,0.7,3.7c0.4,1.2,1.1,2.2,1.9,3.2
			c0.8,0.9,1.9,1.6,3.1,2.2c1.2,0.5,2.5,0.8,4.1,0.8s2.9-0.3,4.1-0.8c1.2-0.5,2.2-1.3,3.1-2.2c0.8-0.9,1.5-2,1.9-3.2
			c0.4-1.2,0.7-2.4,0.7-3.7c0-1.3-0.2-2.5-0.7-3.7c-0.4-1.2-1.1-2.2-1.9-3.2c-0.8-0.9-1.9-1.6-3.1-2.2c-1.2-0.5-2.5-0.8-4.1-0.8
			s-2.9,0.3-4.1,0.8c-1.2,0.5-2.2,1.3-3.1,2.2c-0.8,0.9-1.5,2-1.9,3.2C120.2,179.5,119.9,180.7,119.9,182z"/>
		<path class="st0" d="M152.3,165.5h8.2v5.2h0.1c0.9-1.9,2.2-3.4,3.9-4.5c1.7-1.1,3.6-1.6,5.8-1.6c0.5,0,1,0,1.5,0.1
			c0.5,0.1,1,0.2,1.5,0.3v8c-0.7-0.2-1.4-0.3-2-0.4c-0.7-0.1-1.3-0.2-2-0.2c-1.9,0-3.5,0.4-4.6,1.1c-1.2,0.7-2.1,1.5-2.7,2.4
			c-0.6,0.9-1,1.8-1.2,2.7c-0.2,0.9-0.3,1.6-0.3,2.1v17.7h-8.2V165.5z"/>
		<path class="st0" d="M215.3,160.3c-0.9-1.3-2.1-2.3-3.7-2.9c-1.5-0.6-3.2-0.9-4.8-0.9c-1,0-2,0.1-2.9,0.3
			c-0.9,0.2-1.8,0.6-2.5,1.1c-0.8,0.5-1.4,1.2-1.8,2c-0.5,0.8-0.7,1.8-0.7,2.9c0,1.6,0.6,2.9,1.7,3.8c1.1,0.9,2.6,1.6,4.3,2.3
			c1.7,0.6,3.6,1.3,5.6,1.9c2,0.6,3.9,1.4,5.6,2.5c1.7,1.1,3.1,2.5,4.3,4.2c1.1,1.7,1.7,4.1,1.7,6.9c0,2.6-0.5,4.9-1.4,6.8
			c-1,1.9-2.3,3.6-3.9,4.8c-1.6,1.3-3.5,2.2-5.7,2.9c-2.2,0.6-4.4,1-6.8,1c-3,0-5.9-0.5-8.7-1.5c-2.8-1-5.2-2.7-7.2-5.1l6.5-6.3
			c1.1,1.6,2.4,2.9,4.2,3.7c1.7,0.9,3.5,1.3,5.5,1.3c1,0,2-0.1,3-0.4c1-0.3,1.9-0.7,2.7-1.2c0.8-0.5,1.5-1.2,2-2.1
			c0.5-0.8,0.8-1.8,0.8-2.9c0-1.8-0.6-3.2-1.7-4.1c-1.1-1-2.6-1.8-4.3-2.4c-1.7-0.7-3.6-1.3-5.6-1.9c-2-0.6-3.9-1.4-5.6-2.4
			c-1.7-1-3.1-2.4-4.3-4.1c-1.1-1.7-1.7-4-1.7-6.9c0-2.5,0.5-4.7,1.5-6.5c1-1.8,2.4-3.4,4.1-4.6c1.7-1.2,3.6-2.1,5.7-2.7
			c2.2-0.6,4.4-0.9,6.6-0.9c2.6,0,5.1,0.4,7.5,1.2c2.4,0.8,4.6,2.1,6.5,3.8L215.3,160.3z"/>
		<path class="st0" d="M258.7,198.5h-7.8v-5.3h-0.1c-0.8,1.6-2,3.1-3.6,4.3c-1.6,1.2-3.8,1.8-6.5,1.8c-2.2,0-4.1-0.4-5.6-1.1
			c-1.5-0.7-2.8-1.7-3.7-2.9c-1-1.2-1.6-2.6-2.1-4.2c-0.4-1.6-0.6-3.2-0.6-4.9v-20.8h8.2v16.7c0,0.9,0,1.9,0.1,3.1
			c0.1,1.1,0.3,2.2,0.7,3.2c0.4,1,1,1.8,1.8,2.5c0.8,0.7,1.9,1,3.4,1c1.4,0,2.5-0.2,3.5-0.7c0.9-0.5,1.7-1.1,2.3-1.9
			c0.6-0.8,1.1-1.7,1.3-2.7c0.3-1,0.4-2.1,0.4-3.2v-18h8.2V198.5z"/>
		<path class="st0" d="M289,175.4c-1-1-2-1.8-3-2.4c-1.1-0.6-2.1-0.9-3.2-0.9c-1.5,0-2.9,0.3-4.1,0.8c-1.2,0.5-2.2,1.3-3.1,2.2
			c-0.8,0.9-1.5,2-1.9,3.2c-0.4,1.2-0.7,2.4-0.7,3.7c0,1.3,0.2,2.5,0.7,3.7c0.4,1.2,1.1,2.2,1.9,3.2c0.8,0.9,1.9,1.6,3.1,2.2
			c1.2,0.5,2.5,0.8,4.1,0.8c1.3,0,2.5-0.3,3.6-0.8c1.1-0.5,2-1.3,2.8-2.3l5.5,5.9c-0.8,0.8-1.8,1.5-2.9,2.1
			c-1.1,0.6-2.2,1.1-3.3,1.4c-1.1,0.4-2.2,0.6-3.2,0.8c-1,0.2-1.9,0.2-2.6,0.2c-2.5,0-4.8-0.4-7-1.2c-2.2-0.8-4.1-2-5.7-3.5
			c-1.6-1.5-2.9-3.3-3.8-5.5c-0.9-2.1-1.4-4.5-1.4-7.1c0-2.6,0.5-5,1.4-7.1c0.9-2.1,2.2-4,3.8-5.5c1.6-1.5,3.5-2.7,5.7-3.5
			c2.2-0.8,4.5-1.2,7-1.2c2.1,0,4.2,0.4,6.4,1.2c2.1,0.8,4,2.1,5.6,3.8L289,175.4z"/>
		<path class="st0" d="M320.5,175.4c-1-1-2-1.8-3-2.4c-1.1-0.6-2.1-0.9-3.2-0.9c-1.5,0-2.9,0.3-4.1,0.8c-1.2,0.5-2.2,1.3-3.1,2.2
			c-0.8,0.9-1.5,2-1.9,3.2c-0.4,1.2-0.7,2.4-0.7,3.7c0,1.3,0.2,2.5,0.7,3.7c0.4,1.2,1.1,2.2,1.9,3.2c0.8,0.9,1.9,1.6,3.1,2.2
			c1.2,0.5,2.5,0.8,4.1,0.8c1.3,0,2.5-0.3,3.6-0.8c1.1-0.5,2-1.3,2.8-2.3l5.5,5.9c-0.8,0.8-1.8,1.5-2.9,2.1
			c-1.1,0.6-2.2,1.1-3.3,1.4c-1.1,0.4-2.2,0.6-3.2,0.8c-1,0.2-1.9,0.2-2.6,0.2c-2.5,0-4.8-0.4-7-1.2c-2.2-0.8-4.1-2-5.7-3.5
			c-1.6-1.5-2.9-3.3-3.8-5.5c-0.9-2.1-1.4-4.5-1.4-7.1c0-2.6,0.5-5,1.4-7.1c0.9-2.1,2.2-4,3.8-5.5c1.6-1.5,3.5-2.7,5.7-3.5
			c2.2-0.8,4.5-1.2,7-1.2c2.1,0,4.2,0.4,6.4,1.2c2.1,0.8,4,2.1,5.6,3.8L320.5,175.4z"/>
		<path class="st0" d="M385,174.6c-1.6-2.2-3.8-3.4-6.5-3.4c-1.1,0-2.2,0.3-3.2,0.8c-1.1,0.5-1.6,1.4-1.6,2.7c0,1,0.4,1.7,1.3,2.2
			c0.9,0.5,2,0.8,3.3,1.2c1.3,0.3,2.8,0.7,4.3,1c1.5,0.3,3,0.9,4.3,1.6c1.3,0.7,2.4,1.7,3.3,2.9c0.9,1.2,1.3,2.9,1.3,5.1
			c0,2-0.4,3.6-1.3,5c-0.8,1.4-1.9,2.4-3.3,3.3c-1.4,0.8-2.9,1.4-4.6,1.8c-1.7,0.4-3.4,0.5-5.1,0.5c-2.6,0-4.9-0.4-7.1-1.1
			c-2.2-0.7-4.1-2.1-5.8-4l5.5-5.2c1.1,1.2,2.2,2.2,3.4,2.9c1.2,0.8,2.7,1.1,4.4,1.1c0.6,0,1.2-0.1,1.9-0.2c0.6-0.1,1.2-0.4,1.8-0.7
			c0.5-0.3,1-0.7,1.3-1.2c0.3-0.5,0.5-1,0.5-1.7c0-1.1-0.4-2-1.3-2.5c-0.9-0.5-2-1-3.3-1.3c-1.3-0.3-2.8-0.7-4.3-1
			c-1.5-0.3-3-0.8-4.3-1.4c-1.3-0.7-2.4-1.6-3.3-2.8c-0.9-1.2-1.3-2.8-1.3-4.9c0-1.8,0.4-3.4,1.1-4.8c0.8-1.4,1.8-2.5,3-3.3
			c1.2-0.9,2.7-1.5,4.3-1.9c1.6-0.4,3.2-0.6,4.9-0.6c2.2,0,4.4,0.4,6.5,1.1c2.2,0.8,3.9,2.1,5.2,3.9L385,174.6z"/>
		<path class="st0" d="M413.9,174.6c-1.6-2.2-3.8-3.4-6.5-3.4c-1.1,0-2.2,0.3-3.2,0.8c-1.1,0.5-1.6,1.4-1.6,2.7c0,1,0.4,1.7,1.3,2.2
			c0.9,0.5,2,0.8,3.3,1.2c1.3,0.3,2.8,0.7,4.3,1c1.5,0.3,3,0.9,4.3,1.6c1.3,0.7,2.4,1.7,3.3,2.9c0.9,1.2,1.3,2.9,1.3,5.1
			c0,2-0.4,3.6-1.3,5c-0.8,1.4-1.9,2.4-3.3,3.3c-1.4,0.8-2.9,1.4-4.6,1.8c-1.7,0.4-3.4,0.5-5.1,0.5c-2.6,0-4.9-0.4-7.1-1.1
			c-2.2-0.7-4.1-2.1-5.8-4l5.5-5.2c1.1,1.2,2.2,2.2,3.4,2.9c1.2,0.8,2.7,1.1,4.4,1.1c0.6,0,1.2-0.1,1.9-0.2c0.6-0.1,1.2-0.4,1.8-0.7
			c0.5-0.3,1-0.7,1.3-1.2c0.3-0.5,0.5-1,0.5-1.7c0-1.1-0.4-2-1.3-2.5c-0.9-0.5-2-1-3.3-1.3c-1.3-0.3-2.8-0.7-4.3-1
			c-1.5-0.3-3-0.8-4.3-1.4c-1.3-0.7-2.4-1.6-3.3-2.8c-0.9-1.2-1.3-2.8-1.3-4.9c0-1.8,0.4-3.4,1.1-4.8c0.8-1.4,1.8-2.5,3-3.3
			c1.2-0.9,2.7-1.5,4.3-1.9c1.6-0.4,3.2-0.6,4.9-0.6c2.2,0,4.4,0.4,6.5,1.1c2.2,0.8,3.9,2.1,5.2,3.9L413.9,174.6z"/>
		<path class="st0" d="M337.8,188.3c1.2,2.2,2.8,3.6,4.8,4.3c2,0.7,4.1,0.6,6.3-0.3c1.9-0.8,3.4-1.8,4.3-3.1c1-1.3,1.7-2.8,2.2-4.3
			l7.1,1.9c-0.9,2.9-2.3,5.3-4.1,7.1c-1.8,1.8-4,3.2-6.4,4.2c-2.3,0.9-4.6,1.4-7,1.5c-2.3,0.1-4.5-0.3-6.6-1.1
			c-2.1-0.8-3.9-2-5.6-3.6c-1.7-1.6-3-3.7-4-6.1s-1.4-4.8-1.3-7.1c0.1-2.3,0.6-4.5,1.5-6.5c0.9-2,2.3-3.8,4-5.4
			c1.7-1.6,3.7-2.8,6-3.8c2.1-0.9,4.2-1.3,6.3-1.2c2.1,0,4,0.5,5.8,1.4c1.8,0.9,3.5,2.2,5,4c1.5,1.8,2.8,4,3.9,6.7l0.8,2.1
			L337.8,188.3z M351.2,176.3c-0.9-2.2-2.4-3.7-4.2-4.5c-1.9-0.7-4-0.6-6.5,0.3c-2.3,0.9-3.8,2.3-4.7,4.2c-0.8,1.9-0.9,4-0.3,6.3
			L351.2,176.3z"/>
	</g>
	<g>
		<path class="st1" d="M355.1,51.3h7.8l27.2,63.6h-10.1l-6.4-15.7h-30.2l-6.3,15.7h-10.1L355.1,51.3z M370.6,91.6l-11.8-29.2h-0.2
			l-12,29.2H370.6z"/>
		<path class="st1" d="M432.4,114.9h-8.1v-6.1h-0.2c-1.6,2.3-3.7,4-6.4,5.3c-2.7,1.3-5.5,1.9-8.4,1.9c-3.3,0-6.3-0.6-8.9-1.7
			c-2.7-1.1-4.9-2.7-6.8-4.8c-1.9-2-3.3-4.4-4.4-7.1c-1-2.7-1.5-5.6-1.5-8.8c0-3.2,0.5-6.1,1.5-8.8c1-2.7,2.5-5.1,4.4-7.1
			c1.9-2,4.2-3.6,6.8-4.7c2.7-1.1,5.6-1.7,8.9-1.7c3.1,0,5.9,0.6,8.6,1.9c2.7,1.3,4.8,3,6.2,5.3h0.2V47h8.1V114.9z M410.3,108.4
			c2.2,0,4.1-0.4,5.8-1.1c1.7-0.7,3.2-1.8,4.4-3.1c1.2-1.3,2.1-2.8,2.8-4.7c0.7-1.8,1-3.8,1-6c0-2.2-0.3-4.1-1-6
			c-0.7-1.8-1.6-3.4-2.8-4.7c-1.2-1.3-2.7-2.3-4.4-3.1c-1.7-0.7-3.7-1.1-5.8-1.1c-2.2,0-4.1,0.4-5.8,1.1c-1.7,0.7-3.2,1.8-4.4,3.1
			c-1.2,1.3-2.1,2.8-2.8,4.7c-0.7,1.8-1,3.8-1,6c0,2.2,0.3,4.1,1,6c0.7,1.8,1.6,3.4,2.8,4.7c1.2,1.3,2.7,2.3,4.4,3.1
			C406.2,108,408.2,108.4,410.3,108.4z"/>
		<path class="st1" d="M464.3,83c-1-1.2-2.1-2.2-3.5-3c-1.4-0.8-3.1-1.2-5.2-1.2c-1.9,0-3.6,0.4-5,1.2c-1.4,0.8-2.1,2-2.1,3.5
			c0,1.3,0.4,2.3,1.2,3.1c0.8,0.8,1.8,1.4,2.9,1.9c1.1,0.5,2.3,0.8,3.5,1.1c1.3,0.2,2.3,0.4,3.2,0.6c1.7,0.4,3.4,0.9,4.9,1.5
			c1.5,0.6,2.8,1.4,3.9,2.3c1.1,1,2,2.1,2.6,3.5c0.6,1.4,0.9,3.1,0.9,5c0,2.4-0.5,4.4-1.5,6.1c-1,1.7-2.3,3.1-3.9,4.2
			c-1.6,1.1-3.5,1.9-5.5,2.3c-2.1,0.5-4.1,0.7-6.2,0.7c-3.5,0-6.6-0.5-9.3-1.6c-2.7-1.1-5-3.1-7.1-5.9l6.1-5
			c1.3,1.3,2.8,2.5,4.4,3.5c1.6,1,3.6,1.5,5.9,1.5c1,0,2-0.1,3.1-0.3c1-0.2,2-0.5,2.8-1c0.8-0.4,1.5-1,2-1.7
			c0.5-0.7,0.8-1.5,0.8-2.4c0-1.2-0.4-2.2-1.1-3c-0.7-0.8-1.6-1.4-2.7-1.8c-1-0.4-2.2-0.8-3.3-1.1c-1.2-0.3-2.2-0.5-3.1-0.7
			c-1.7-0.4-3.4-0.9-4.9-1.4c-1.6-0.5-2.9-1.3-4.1-2.2c-1.2-0.9-2.2-2-2.9-3.4c-0.7-1.4-1.1-3.1-1.1-5.1c0-2.2,0.5-4.1,1.4-5.8
			c0.9-1.6,2.2-3,3.7-4.1c1.5-1.1,3.3-1.9,5.2-2.4c1.9-0.5,3.9-0.8,5.9-0.8c2.9,0,5.6,0.5,8.3,1.6c2.6,1.1,4.7,2.9,6.3,5.4L464.3,83
			z"/>
	</g>
	<g>
		<g id="XMLID_137_">
			<path id="XMLID_138_" class="st2" d="M85.4,73.9l10.2,6.6c-0.2-0.1-0.4-0.2-0.6-0.1c-0.3,0-0.5,0.2-0.7,0.4L84,74.2
				c0.2-0.3,0.5-0.4,0.7-0.4C84.9,73.7,85.2,73.8,85.4,73.9z"/>
		</g>
		<g id="XMLID_135_">
			<polygon id="XMLID_136_" class="st2" points="71.2,108.7 61,102.2 84,74.2 94.2,80.8 			"/>
		</g>
		<g id="XMLID_133_">
			<path id="XMLID_134_" class="st2" d="M69.4,109.2l-10.2-6.6c0.2,0.2,0.5,0.2,0.8,0.2c0.4-0.1,0.7-0.3,1-0.6l10.2,6.6
				c-0.3,0.3-0.6,0.5-1,0.6C70,109.4,69.7,109.3,69.4,109.2z"/>
		</g>
		<g id="XMLID_131_">
			<radialGradient id="XMLID_2_" cx="89.0442" cy="40.9618" r="84.4726" gradientUnits="userSpaceOnUse">
				<stop  offset="0.1422" style="stop-color:#B6D324"/>
				<stop  offset="0.767" style="stop-color:#308C36"/>
				<stop  offset="1" style="stop-color:#13672E"/>
			</radialGradient>
			<path id="XMLID_132_" class="st3" d="M69.3,104.9l-10.2-6.6c-0.1,0-0.1-0.1-0.2-0.1l10.2,6.6C69.2,104.8,69.2,104.8,69.3,104.9z"
				/>
		</g>
		<g id="XMLID_129_">
			<radialGradient id="XMLID_3_" cx="91.7125" cy="48.4559" r="90.5579" gradientUnits="userSpaceOnUse">
				<stop  offset="0.1422" style="stop-color:#B6D324"/>
				<stop  offset="0.767" style="stop-color:#308C36"/>
				<stop  offset="1" style="stop-color:#13672E"/>
			</radialGradient>
			<path id="XMLID_130_" class="st4" d="M112.1,6.3l9.3,8.3c-0.3-0.2-0.6-0.2-1-0.2l-9.3-8.3C111.5,6.1,111.8,6.1,112.1,6.3z"/>
		</g>
		<g id="XMLID_127_">
			<radialGradient id="XMLID_4_" cx="91.6018" cy="47.8954" r="90.099" gradientUnits="userSpaceOnUse">
				<stop  offset="0.1422" style="stop-color:#B6D324"/>
				<stop  offset="0.767" style="stop-color:#308C36"/>
				<stop  offset="1" style="stop-color:#13672E"/>
			</radialGradient>
			<path id="XMLID_128_" class="st5" d="M119.3,15.1L110,6.8c0.3-0.4,0.7-0.6,1.1-0.7l9.3,8.3C120.1,14.5,119.7,14.7,119.3,15.1z"/>
		</g>
		<g id="XMLID_125_">
			<radialGradient id="XMLID_5_" cx="89.0585" cy="40.8988" r="84.8497" gradientUnits="userSpaceOnUse">
				<stop  offset="0.1422" style="stop-color:#B6D324"/>
				<stop  offset="0.767" style="stop-color:#308C36"/>
				<stop  offset="1" style="stop-color:#13672E"/>
			</radialGradient>
			<polygon id="XMLID_126_" class="st6" points="96,42.9 85.8,36.3 110,6.8 119.3,15.1 			"/>
		</g>
		<g id="XMLID_123_">
			<radialGradient id="XMLID_6_" cx="89.0442" cy="40.9619" r="84.4724" gradientUnits="userSpaceOnUse">
				<stop  offset="0.1422" style="stop-color:#B6D324"/>
				<stop  offset="0.767" style="stop-color:#308C36"/>
				<stop  offset="1" style="stop-color:#13672E"/>
			</radialGradient>
			<polygon id="XMLID_124_" class="st7" points="71.2,73 61,66.4 85.8,36.3 96,42.9 			"/>
		</g>
		<g id="XMLID_121_">
			<radialGradient id="XMLID_7_" cx="89.0442" cy="40.9619" r="84.4724" gradientUnits="userSpaceOnUse">
				<stop  offset="0.1422" style="stop-color:#B6D324"/>
				<stop  offset="0.767" style="stop-color:#308C36"/>
				<stop  offset="1" style="stop-color:#13672E"/>
			</radialGradient>
			<path id="XMLID_122_" class="st8" d="M69.4,73.4l-10.2-6.6c0.1,0.1,0.2,0.1,0.4,0.2c0.2,0,0.3,0,0.5,0c0.4-0.1,0.7-0.3,1-0.6
				L71.2,73c-0.3,0.3-0.6,0.5-1,0.6c-0.2,0-0.3,0-0.5,0C69.6,73.5,69.5,73.4,69.4,73.4z"/>
		</g>
		<g id="XMLID_119_">
			<radialGradient id="XMLID_8_" cx="46.0209" cy="52.8415" r="127.9021" gradientUnits="userSpaceOnUse">
				<stop  offset="0" style="stop-color:#F7F8F9"/>
				<stop  offset="0.1027" style="stop-color:#E9E9E9"/>
				<stop  offset="0.233" style="stop-color:#CECCCD"/>
				<stop  offset="0.3782" style="stop-color:#A9A6A6"/>
				<stop  offset="0.5343" style="stop-color:#7E7B7B"/>
				<stop  offset="0.6971" style="stop-color:#545252"/>
				<stop  offset="0.8" style="stop-color:#3D3D3D"/>
			</radialGradient>
			<path id="XMLID_120_" class="st9" d="M69.3,69.1l-10.2-6.6c-0.1,0-0.1-0.1-0.2-0.1L69.2,69C69.2,69,69.3,69.1,69.3,69.1z"/>
		</g>
		<g id="XMLID_117_">
			<path id="XMLID_118_" class="st2" d="M80.7,25.6l10.2,6.6c-2.1-1.4-4.8-2-7.7-1.5L73,24.1C75.9,23.7,78.6,24.3,80.7,25.6z"/>
		</g>
		<g id="XMLID_115_">
			<path id="XMLID_116_" class="st2" d="M20.3,123.3l-10.2-6.6c-3.1-2-5-5.6-5-10l10.2,6.6C15.3,117.8,17.3,121.4,20.3,123.3z"/>
		</g>
		<g id="XMLID_113_">
			<radialGradient id="XMLID_9_" cx="89.0442" cy="40.9619" r="84.4725" gradientUnits="userSpaceOnUse">
				<stop  offset="0.1422" style="stop-color:#B6D324"/>
				<stop  offset="0.767" style="stop-color:#308C36"/>
				<stop  offset="1" style="stop-color:#13672E"/>
			</radialGradient>
			<path id="XMLID_114_" class="st10" d="M41.1,50.6l10.2,6.6c-0.3-0.2-0.6-0.2-1-0.2c-0.4,0.1-0.8,0.3-1.1,0.7L39,51.1
				c0.3-0.4,0.7-0.6,1.1-0.7C40.5,50.3,40.8,50.4,41.1,50.6z"/>
		</g>
		<g id="XMLID_111_">
			<polygon id="XMLID_112_" class="st2" points="69.2,69 59,62.4 41.1,46.4 51.3,53 			"/>
		</g>
		<g id="XMLID_109_">
			<radialGradient id="XMLID_10_" cx="46.0209" cy="52.8414" r="127.9022" gradientUnits="userSpaceOnUse">
				<stop  offset="0" style="stop-color:#F7F8F9"/>
				<stop  offset="0.1027" style="stop-color:#E9E9E9"/>
				<stop  offset="0.233" style="stop-color:#CECCCD"/>
				<stop  offset="0.3782" style="stop-color:#A9A6A6"/>
				<stop  offset="0.5343" style="stop-color:#7E7B7B"/>
				<stop  offset="0.6971" style="stop-color:#545252"/>
				<stop  offset="0.8" style="stop-color:#3D3D3D"/>
			</radialGradient>
			<path id="XMLID_110_" class="st11" d="M41,46.3l10.2,6.6c0,0,0.1,0.1,0.1,0.1l-10.2-6.6C41.1,46.4,41,46.3,41,46.3z"/>
		</g>
		<g id="XMLID_107_">
			<radialGradient id="XMLID_11_" cx="89.0442" cy="40.9618" r="84.4724" gradientUnits="userSpaceOnUse">
				<stop  offset="0.1422" style="stop-color:#B6D324"/>
				<stop  offset="0.767" style="stop-color:#308C36"/>
				<stop  offset="1" style="stop-color:#13672E"/>
			</radialGradient>
			<polygon id="XMLID_108_" class="st12" points="69.1,104.8 58.9,98.2 26.3,68.9 36.5,75.5 			"/>
		</g>
		<g id="XMLID_105_">
			<radialGradient id="XMLID_12_" cx="89.0442" cy="40.9619" r="84.4724" gradientUnits="userSpaceOnUse">
				<stop  offset="0.1422" style="stop-color:#B6D324"/>
				<stop  offset="0.767" style="stop-color:#308C36"/>
				<stop  offset="1" style="stop-color:#13672E"/>
			</radialGradient>
			<polygon id="XMLID_106_" class="st13" points="36.5,73.1 26.3,66.5 39,51.1 49.2,57.7 			"/>
		</g>
		<g id="XMLID_103_">
			<radialGradient id="XMLID_13_" cx="89.0442" cy="40.9618" r="84.4724" gradientUnits="userSpaceOnUse">
				<stop  offset="0.1422" style="stop-color:#B6D324"/>
				<stop  offset="0.767" style="stop-color:#308C36"/>
				<stop  offset="1" style="stop-color:#13672E"/>
			</radialGradient>
			<path id="XMLID_104_" class="st14" d="M36.5,75.5l-10.2-6.6c-0.6-0.6-0.6-1.6,0-2.4l10.2,6.6C35.9,73.9,35.9,74.9,36.5,75.5z"/>
		</g>
		<g id="XMLID_101_">
			<polygon id="XMLID_102_" class="st2" points="28.1,39.5 17.9,32.9 73,24.1 83.2,30.7 			"/>
		</g>
		<g id="XMLID_99_">
			<polygon id="XMLID_100_" class="st2" points="15.3,113.4 5.1,106.8 5.1,48.5 15.3,55.1 			"/>
		</g>
		<g id="XMLID_97_">
			
				<radialGradient id="XMLID_14_" cx="77.6562" cy="68.9636" r="135.5295" gradientTransform="matrix(0.8909 0 0 0.8909 -23.6229 -29.6727)" gradientUnits="userSpaceOnUse">
				<stop  offset="0" style="stop-color:#5380C2"/>
				<stop  offset="0.1051" style="stop-color:#517BB7"/>
				<stop  offset="0.2385" style="stop-color:#4D70A2"/>
				<stop  offset="0.3871" style="stop-color:#466085"/>
				<stop  offset="0.5469" style="stop-color:#3A4B62"/>
				<stop  offset="0.7155" style="stop-color:#2A333E"/>
				<stop  offset="0.8889" style="stop-color:#181B1E"/>
				<stop  offset="1" style="stop-color:#060606"/>
			</radialGradient>
			<path id="XMLID_98_" class="st15" d="M83.2,30.7c5.5-0.9,10.2,2.1,12,6.9c0.3,0.8,0.1,1.9-0.5,2.7L71.3,68.7
				c-0.3,0.4-0.7,0.6-1.1,0.7c-0.4,0.1-0.8,0-1.1-0.3L51.3,53c-0.3-0.2-0.6-0.3-1-0.3c-0.2,0-0.3,0.1-0.5,0.2
				c-0.2,0.1-0.4,0.3-0.5,0.4L32.4,73.9c-0.5,0.7-0.5,1.6,0,2.1l36.8,33.1c0.3,0.2,0.6,0.3,1,0.3c0.4-0.1,0.7-0.3,1-0.6l23-28
				c0.2-0.3,0.5-0.4,0.7-0.4c0.5-0.1,1,0.3,1,0.9v19.2c0,7.5-5.7,14.4-12.8,15.6l-55.1,8.8c-7.1,1.1-12.8-4-12.8-11.5V55.1
				c0-7.5,5.7-14.4,12.8-15.6L83.2,30.7z"/>
		</g>
		<g id="XMLID_95_">
			<path id="XMLID_96_" class="st2" d="M15.3,55.1L5.1,48.5c0-7.5,5.7-14.4,12.8-15.6l10.2,6.6C21,40.7,15.3,47.6,15.3,55.1z"/>
		</g>
		<g id="XMLID_93_">
			
				<radialGradient id="XMLID_15_" cx="73.5808" cy="68.581" r="143.9438" gradientTransform="matrix(0.8909 0 0 0.8909 -23.6229 -29.6727)" gradientUnits="userSpaceOnUse">
				<stop  offset="0.1422" style="stop-color:#B6D324"/>
				<stop  offset="1" style="stop-color:#13672E"/>
			</radialGradient>
			<path id="XMLID_94_" class="st16" d="M118.1,12.4c0.4-0.1,0.8,0,1.1,0.3L136,27.6c0.6,0.6,0.6,1.6,0,2.4L97.8,76.5l-26.4,32.1
				c-0.3,0.4-0.7,0.6-1.1,0.7c-0.4,0.1-0.8,0-1.1-0.3L32.3,76.4c-0.6-0.6-0.6-1.6,0-2.4l16.9-20.7c0.3-0.4,0.7-0.6,1.1-0.7
				c0.4-0.1,0.8,0,1.1,0.3l17.8,16.2c0.2,0.1,0.3,0.2,0.5,0.3c0.2,0,0.3,0,0.5,0c0.4-0.1,0.7-0.3,1-0.6l22.5-27.4L117,13.1
				C117.3,12.7,117.7,12.5,118.1,12.4z"/>
		</g>
	</g>
	<path class="st0" d="M256.9,81.5c0,10.8,0,21.5,0,32.3c0,1.6,0.4,2.3,2.1,2.2c1.9-0.1,3.8-0.2,5.7,0c2,0.2,2.4-0.6,2.4-2.4
		c-0.1-16.6,0-33.3,0-50c0-4.7,0-9.4,0-14.1c0-1.3-0.4-1.9-1.8-1.8c-2.1,0.1-4.2,0.1-6.2,0c-1.9-0.1-2.2,0.6-2.2,2.3
		C257,60.4,256.9,71,256.9,81.5z"/>
	<path class="st17" d="M256.9,81.5c0-10.5,0-21,0-31.5c0-1.7,0.3-2.5,2.2-2.3c2.1,0.2,4.1,0.1,6.2,0c1.4-0.1,1.8,0.5,1.8,1.8
		c-0.1,4.7,0,9.4,0,14.1c0,16.7,0,33.3,0,50c0,1.8-0.4,2.6-2.4,2.4c-1.9-0.2-3.8-0.1-5.7,0c-1.7,0.1-2.1-0.6-2.1-2.2
		C256.9,103,256.9,92.2,256.9,81.5z"/>
	<path class="st18" d="M128.8,117c-13.1,0-22.8-9.9-22.8-23.4c0-13.2,9.8-23.1,22.9-23.1c13,0,23,10.1,23,23.3
		C151.9,107,141.9,117,128.8,117z M141.5,91.3c-0.9-5.4-3.6-9.4-9-11c-4.8-1.4-9.2-0.3-12.6,3.5c-4.9,5.3-4.9,14-0.2,19.5
		c4.5,5.3,12.5,5.9,17.5,1.2c3.1-2.8,4.6-6.5,4.5-10.7C141.6,93.1,141.6,92.2,141.5,91.3z"/>
	<path class="st19" d="M178.1,117c-13.1,0-22.8-9.9-22.8-23.4c0-13.2,9.8-23.1,22.9-23.1c13,0,23,10.1,23,23.3
		C201.2,107,191.2,117,178.1,117z M190.8,91.3c-0.9-5.4-3.6-9.4-9-11c-4.8-1.4-9.2-0.3-12.6,3.5c-4.9,5.3-4.9,14-0.2,19.5
		c4.5,5.3,12.5,5.9,17.5,1.2c3.1-2.8,4.6-6.5,4.5-10.7C190.9,93.1,190.9,92.2,190.8,91.3z"/>
	<path class="st2" d="M249.3,72.4c-1.3-1.3-4-0.2-6-0.5c-2.6-0.4-3.7,0.5-3.3,3.2c0,0.1-0.2,0.2-0.4,0.3c-4.3-4.3-9.4-5.8-15.3-4.6
		c-12.6,2.5-20.7,14.8-18.1,27.4c2.4,11.3,12.1,18.9,23.2,18.2c4-0.3,7.3-2,10.5-5.2c0,2.6,0,4.5-0.3,6.4c-0.7,4.7-2.8,8.3-7.6,9.8
		c-4.9,1.5-9.2,0.5-12.9-3.2c-1.3-1.2-1.4-3.9-3.5-3.8c-1.7,0.1-3.4,1.3-5.1,2c-0.4,0.2-0.7,0.3-1.1,0.4c-2,0.5-1.9,1.5-1,3.1
		c6.9,12.7,21.6,13.9,31,8.6c7.3-4.2,9.8-11.2,10-19c0.3-12.3,0.1-24.7,0.1-37.1C249.7,76.3,250.6,73.7,249.3,72.4z M240.7,93.1
		c0.1,4.6-1.2,8.4-4.2,11.2c-5,4.7-12.9,4-17.2-1.4c-5-6.2-4-16.2,2.1-20.8c6.5-4.9,15-2.5,18.1,5.1
		C240.3,89.2,240.9,91.3,240.7,93.1z"/>
	<path class="st18" d="M285.6,100.1c8.5-3.4,16.9-7,25.4-10.4c4.3-1.8,4.3-1.8,2.2-6.1c-6.2-12.8-19.9-17-31.2-9.7
		c-8.4,5.4-12.2,16.6-9.1,26.8c2.9,9.9,11.5,16.2,21.7,16.2c7.7,0.2,13.5-2.7,18.3-7.9c1.4-1.5,1.9-2.6-0.4-3.7
		c-1.2-0.6-2.4-1.4-3.4-2.2c-1.8-1.6-2.9-1.3-4.5,0.5c-5.5,6.1-15.6,5.5-19.7-1.1C284.1,101.3,284.1,100.7,285.6,100.1z M284.1,92.1
		c-1.4,0.6-2.2,0.6-1.9-1.1c0.3-7.9,9.2-13.5,16.3-10.5c0.9,0.4,1.8,1,2.6,1.7c1.7,1.6,1.6,2.2-0.5,3.1
		C295.1,87.5,289.6,89.8,284.1,92.1z"/>
</g>
</svg>
