<?xml version="1.0" encoding="utf-8"?>
<!-- Generator: Adobe Illustrator 24.1.2, SVG Export Plug-In . SVG Version: 6.00 Build 0)  -->
<svg version="1.1" id="Layer_1" xmlns="http://www.w3.org/2000/svg" xmlns:xlink="http://www.w3.org/1999/xlink" x="0px" y="0px"
	 viewBox="0 0 725.3 299.1" style="enable-background:new 0 0 725.3 299.1;" xml:space="preserve">
<style type="text/css">
	.st0{fill:#FFFFFF;}
	.st1{fill:#8DC63F;}
</style>
<g>
	<g>
		<path d="M444.9,211.1h-27V71.2h27V211.1z"/>
		<path d="M482.7,96.4h-27V71h27V96.4z M482.7,211.1h-27V108.6h27V211.1z"/>
		<path d="M558.3,145.2c-0.8-5.2-2.9-9.4-6.4-12.4c-3.5-3-7.8-4.5-12.9-4.5c-2.8,0-5.5,0.5-8.1,1.5c-2.6,1-4.8,2.6-6.6,4.9
			c-1.9,2.3-3.4,5.4-4.5,9.2c-1.1,3.8-1.7,8.5-1.7,14.1c0,11.2,2,19.6,6.1,25c4,5.4,8.7,8.1,13.9,8.1c5.2,0,9.7-1.5,13.5-4.4
			c3.7-2.9,5.9-7.2,6.5-12.7h27.2c-0.8,6-2.4,11.4-5.1,16.3c-2.6,4.9-6,9.1-10.2,12.6c-4.2,3.5-9,6.2-14.4,8.1s-11.2,2.8-17.3,2.8
			c-7,0-13.4-1.2-19.1-3.5c-5.7-2.3-10.7-5.8-14.9-10.3c-4.2-4.6-7.5-10.3-9.8-17.2c-2.3-6.9-3.4-14.9-3.4-24.1
			c0-9.1,1.2-17.1,3.5-23.7c2.3-6.7,5.6-12.1,9.8-16.4c4.2-4.3,9.2-7.5,15.2-9.6c5.9-2.1,12.5-3.1,19.7-3.1
			c13.6,0,24.5,3.5,32.7,10.6c8.2,7,12.7,16.6,13.6,28.8H558.3z"/>
	</g>
	<polygon points="671.7,164.7 681.3,173.7 713.5,103.4 713.3,103.5 713.5,103.4 705.9,100.4 630.7,122.5 643.7,136.5 620.8,159 
		620.8,71.2 593.8,71.2 593.8,211.1 620.8,211.1 620.8,176.4 653.2,210.7 694,210.7 660.4,176.9 	"/>
	<polygon class="st0" points="644,156.2 657.6,172.2 671.5,157.2 679.6,164.9 703.7,112.9 652.2,132.7 658.6,141 	"/>
	<circle class="st1" cx="147.8" cy="144.7" r="139.9"/>
	<circle cx="147.8" cy="144.7" r="125.6"/>
	<g>
		<g>
			<path class="st0" d="M35.9,201.8l-29.4-0.4V61.6h70.3c6.1,0,11.8,1.2,17,3.6c5.2,2.4,9.7,5.6,13.5,9.7c3.8,4.1,6.8,9,8.8,14.4
				c2,5.5,3.1,11.5,3.1,17.8c0,6.4-1.1,12.3-3.2,17.7c-2.1,5.4-5.1,10.1-8.9,14c-3.8,3.9-8.4,7-13.7,9.2c-5.3,2.2-11.2,3.3-17.6,3.3
				l-39.8,0.3V201.8z"/>
			<path d="M69.4,127.7h-22v-42h22c7.4,0,13.3,2,17.7,5.9c4.4,4,6.7,9,6.7,14.9c0,6.2-2.4,11.4-7,15.3
				C82.1,125.7,76.3,127.7,69.4,127.7z"/>
		</g>
		<g>
			<path class="st0" d="M156.1,201.5h-28.5V97.4h27V108c1.9-2.5,3.8-4.6,5.7-6.2c2.4-2,5-3.5,7.6-4.6c2.6-1.1,5.3-1.7,8.1-2
				c2.7-0.2,5.4-0.3,8.2-0.3h4.4v29.4l-0.9-0.2c-2.5-0.4-4.9-0.7-7.3-0.7c-16.3,0-24.2,7.8-24.2,24V201.5z"/>
		</g>
		<g>
			<path class="st0" d="M243.4,204.2c-8.3,0-15.9-1.3-22.4-4c-6.6-2.6-12.2-6.4-16.8-11.2c-4.6-4.8-8.1-10.6-10.5-17.4
				c-2.4-6.7-3.6-14.2-3.6-22.2c0-8.2,1.3-15.7,3.8-22.3c2.5-6.7,6.1-12.5,10.6-17.2c4.6-4.8,10.2-8.5,16.8-11.2
				c6.6-2.6,14.1-4,22.2-4c8.2,0,15.6,1.3,22.1,3.9c6.5,2.6,12.1,6.3,16.7,11.1c4.5,4.8,8.1,10.6,10.5,17.4
				c2.4,6.7,3.6,14.3,3.6,22.4c0,8.1-1.3,15.7-3.8,22.4c-2.5,6.7-6.1,12.6-10.6,17.4c-4.6,4.8-10.2,8.5-16.7,11.1
				C258.8,202.9,251.4,204.2,243.4,204.2z M243.4,119.2c-16.1,0-24,9.9-24,30.3c0,20.5,7.8,30.5,24,30.5c16.1,0,24-10,24-30.5
				C267.4,129.1,259.6,119.2,243.4,119.2z"/>
		</g>
	</g>
	<g>
		<path d="M382.5,126.2c-1.9-6.8-5.7-12.2-11.2-16c-5.5-3.9-11.8-5.8-18.7-5.8c-5.5,0-10.5,1-14.8,3.1c-4.3,2.1-8.1,5-11.1,8.8
			c-3.1,3.8-5.4,8.3-7,13.4c-1.6,5.2-2.4,10.9-2.4,17.2c0,6.2,0.8,11.8,2.4,17c1.6,5.2,3.8,9.6,6.7,13.3c2.9,3.7,6.4,6.7,10.6,8.8
			c4.1,2.2,8.8,3.2,14.1,3.2c8.5,0,15.4-2,20.7-6.1c5.2-4.1,8.8-9.9,10.8-17.5h29c-1.5,7-3.9,13.2-7.3,18.8
			c-3.4,5.6-7.6,10.4-12.6,14.4c-5,4-10.9,7.1-17.5,9.3c-6.7,2.2-14.1,3.3-22.1,3.3c-9,0-17.4-1.3-25.2-4c-7.8-2.7-14.5-6.7-20.3-12
			c-5.7-5.3-10.2-11.9-13.4-19.8c-3.2-7.9-4.8-17-4.8-27.3c0-10.2,1.5-19.4,4.5-27.5c3-8.1,7.2-15.1,12.7-20.8
			c5.5-5.7,12.2-10.1,20.2-13.1c7.9-3,16.9-4.5,26.7-4.5c8.7,0,16.5,1.1,23.5,3.4c7,2.3,13,5.4,18,9.3c5,3.9,9,8.6,12,13.9
			c3,5.3,4.9,11,5.6,17H382.5z"/>
	</g>
	<g>
		<path d="M301.8,239c3.3-0.5,7.2-0.9,11.5-0.9c7.7,0,13.3,1.8,16.9,5.2c3.7,3.4,5.9,8.2,5.9,14.9c0,6.8-2.1,12.4-6,16.2
			c-3.9,3.9-10.4,6-18.5,6c-3.9,0-7.1-0.1-9.8-0.5V239z M307.2,275.9c1.4,0.2,3.4,0.3,5.4,0.3c11.6,0,17.8-6.4,17.8-17.7
			c0.1-9.9-5.5-16.1-16.9-16.1c-2.8,0-4.9,0.3-6.3,0.6V275.9z"/>
		<path d="M347.9,241.7c0,1.9-1.3,3.4-3.5,3.4c-2,0-3.3-1.5-3.3-3.4c0-1.9,1.4-3.4,3.4-3.4C346.6,238.3,347.9,239.8,347.9,241.7z
			 M341.8,280.2v-30h5.4v30H341.8z"/>
		<path d="M381,250.2c-0.2,2.1-0.3,4.6-0.3,8.2v17.4c0,6.9-1.4,11.1-4.3,13.7c-2.9,2.7-7.1,3.6-10.9,3.6c-3.6,0-7.6-0.8-10-2.5
			l1.4-4.2c2,1.2,5.1,2.4,8.8,2.4c5.6,0,9.7-2.9,9.7-10.5V275h-0.1c-1.6,2.8-4.9,5.1-9.5,5.1c-7.5,0-12.8-6.4-12.8-14.7
			c0-10.2,6.6-15.9,13.5-15.9c5.2,0,8,2.7,9.4,5.2h0.1l0.2-4.5H381z M375.4,262c0-0.9-0.1-1.7-0.3-2.4c-1-3.2-3.6-5.8-7.7-5.8
			c-5.2,0-8.9,4.4-8.9,11.4c0,5.9,3,10.8,8.9,10.8c3.4,0,6.4-2.1,7.6-5.6c0.3-0.9,0.4-1.9,0.4-2.9V262z"/>
		<path d="M394.3,241.7c0,1.9-1.3,3.4-3.5,3.4c-2,0-3.3-1.5-3.3-3.4c0-1.9,1.4-3.4,3.4-3.4C393,238.3,394.3,239.8,394.3,241.7z
			 M388.3,280.2v-30h5.4v30H388.3z"/>
		<path d="M408.1,241.6v8.6h7.8v4.1h-7.8v16.2c0,3.7,1.1,5.8,4.1,5.8c1.4,0,2.4-0.2,3.2-0.4l0.2,4.1c-1.1,0.4-2.8,0.8-4.9,0.8
			c-2.5,0-4.6-0.8-5.9-2.3c-1.5-1.7-2.1-4.3-2.1-7.8v-16.4h-4.6v-4.1h4.6V243L408.1,241.6z"/>
		<path d="M437.5,280.2l-0.5-3.8h-0.2c-1.6,2.3-4.9,4.5-9.2,4.5c-6.1,0-9.2-4.3-9.2-8.6c0-7.3,6.4-11.2,18-11.2v-0.6
			c0-2.4-0.7-6.9-6.8-6.9c-2.8,0-5.7,0.8-7.8,2.2l-1.2-3.6c2.5-1.6,6.1-2.6,9.9-2.6c9.2,0,11.4,6.3,11.4,12.3V273
			c0,2.6,0.1,5.1,0.5,7.2H437.5z M436.7,264.9c-5.9-0.1-12.7,0.9-12.7,6.7c0,3.6,2.4,5.2,5.1,5.2c3.9,0,6.4-2.5,7.3-5
			c0.2-0.6,0.3-1.2,0.3-1.7V264.9z"/>
		<path d="M449.6,236.2h5.4v44h-5.4V236.2z"/>
		<path d="M510.4,261.8c-0.3-5.8-0.7-12.9-0.7-18h-0.2c-1.4,4.8-3.2,10.1-5.3,15.8l-7.4,20.3h-4.1l-6.8-19.9
			c-2-5.9-3.6-11.3-4.8-16.2h-0.1c-0.1,5.2-0.4,12.2-0.8,18.4l-1.1,17.9h-5.1l2.9-41.8h6.9l7.1,20.2c1.7,5.1,3.1,9.7,4.2,14.1h0.2
			c1.1-4.2,2.6-8.8,4.4-14.1l7.5-20.2h6.9l2.6,41.8h-5.3L510.4,261.8z"/>
		<path d="M540.6,280.2l-0.5-3.8H540c-1.6,2.3-4.9,4.5-9.2,4.5c-6.1,0-9.2-4.3-9.2-8.6c0-7.3,6.4-11.2,18-11.2v-0.6
			c0-2.4-0.7-6.9-6.8-6.9c-2.8,0-5.7,0.8-7.8,2.2l-1.2-3.6c2.5-1.6,6.1-2.6,9.9-2.6c9.2,0,11.4,6.3,11.4,12.3V273
			c0,2.6,0.1,5.1,0.5,7.2H540.6z M539.8,264.9c-5.9-0.1-12.7,0.9-12.7,6.7c0,3.6,2.4,5.2,5.1,5.2c3.9,0,6.4-2.5,7.3-5
			c0.2-0.6,0.3-1.2,0.3-1.7V264.9z"/>
		<path d="M552.7,259.5c0-3.5-0.1-6.6-0.2-9.3h4.8l0.2,5.9h0.2c1.4-4,4.7-6.6,8.3-6.6c0.6,0,1,0,1.5,0.2v5.1
			c-0.6-0.1-1.1-0.2-1.9-0.2c-3.8,0-6.6,2.9-7.3,7c-0.1,0.8-0.2,1.7-0.2,2.5v16h-5.4V259.5z"/>
		<path d="M577.4,263.9h0.1c0.7-1.1,1.8-2.4,2.6-3.4l8.8-10.3h6.5L584,262.5l13.2,17.6h-6.6l-10.3-14.4l-2.8,3.1v11.3H572v-44h5.4
			V263.9z"/>
		<path d="M603,266.2c0.1,7.4,4.8,10.4,10.3,10.4c3.9,0,6.3-0.7,8.3-1.5l1,3.9c-1.9,0.9-5.2,1.9-10,1.9c-9.2,0-14.7-6.1-14.7-15.1
			c0-9.1,5.3-16.2,14.1-16.2c9.8,0,12.3,8.6,12.3,14.1c0,1.1-0.1,2-0.2,2.6H603z M619,262.3c0.1-3.4-1.4-8.8-7.5-8.8
			c-5.6,0-7.9,5-8.4,8.8H619z"/>
		<path d="M636.4,241.6v8.6h7.8v4.1h-7.8v16.2c0,3.7,1.1,5.8,4.1,5.8c1.4,0,2.4-0.2,3.2-0.4l0.3,4.1c-1.1,0.4-2.8,0.8-4.9,0.8
			c-2.5,0-4.6-0.8-5.9-2.3c-1.5-1.7-2.1-4.3-2.1-7.8v-16.4h-4.6v-4.1h4.6V243L636.4,241.6z"/>
		<path d="M655.3,241.7c0,1.9-1.3,3.4-3.5,3.4c-2,0-3.3-1.5-3.3-3.4c0-1.9,1.4-3.4,3.4-3.4C653.9,238.3,655.3,239.8,655.3,241.7z
			 M649.2,280.2v-30h5.4v30H649.2z"/>
		<path d="M662.5,258.3c0-3.1-0.1-5.6-0.2-8.1h4.8l0.3,4.9h0.2c1.5-2.8,5-5.6,9.9-5.6c4.1,0,10.6,2.5,10.6,12.8v17.9h-5.4v-17.3
			c0-4.8-1.8-8.9-6.9-8.9c-3.6,0-6.4,2.5-7.3,5.6c-0.2,0.7-0.4,1.6-0.4,2.5v18.1h-5.4V258.3z"/>
		<path d="M721.6,250.2c-0.1,2.1-0.3,4.6-0.3,8.2v17.4c0,6.9-1.4,11.1-4.3,13.7c-2.9,2.7-7.1,3.6-10.9,3.6c-3.6,0-7.6-0.8-10-2.5
			l1.4-4.2c2,1.2,5.1,2.4,8.8,2.4c5.6,0,9.7-2.9,9.7-10.5V275h-0.1c-1.6,2.8-4.9,5.1-9.5,5.1c-7.5,0-12.8-6.4-12.8-14.7
			c0-10.2,6.6-15.9,13.5-15.9c5.2,0,8,2.7,9.4,5.2h0.1l0.2-4.5H721.6z M715.9,262c0-0.9-0.1-1.7-0.3-2.4c-1-3.2-3.6-5.8-7.7-5.8
			c-5.2,0-8.9,4.4-8.9,11.4c0,5.9,3,10.8,8.9,10.8c3.4,0,6.4-2.1,7.6-5.6c0.3-0.9,0.4-1.9,0.4-2.9V262z"/>
	</g>
</g>
</svg>
